<?xml version="1.0" standalone="no"?>
<!DOCTYPE svg PUBLIC "-//W3C//DTD SVG 20010904//EN"
 "http://www.w3.org/TR/2001/REC-SVG-20010904/DTD/svg10.dtd">
<svg version="1.0" xmlns="http://www.w3.org/2000/svg"
 width="912.000000pt" height="912.000000pt" viewBox="0 0 512.000000 512.000000"
 preserveAspectRatio="xMidYMid meet">

<g transform="translate(0.000000,512.000000) scale(0.100000,-0.100000)"
fill="#ff4060" stroke="none">
<path d="M1114 4846 c-407 -75 -712 -354 -822 -751 l-27 -100 0 -1435 0 -1435
27 -100 c101 -365 368 -632 737 -733 l96 -27 1435 0 1435 0 100 27 c365 101
632 368 733 737 l27 96 0 1435 0 1435 -27 96 c-101 369 -368 636 -733 736
l-100 28 -1405 2 c-1112 1 -1420 -1 -1476 -11z m1056 -645 c18 -34 11 -60 -27
-102 l-37 -40 348 -348 348 -348 67 34 c86 43 160 57 242 44 166 -27 290 -146
324 -310 20 -92 8 -172 -38 -262 l-34 -67 348 -348 349 -348 34 33 c41 40 81
44 108 11 10 -12 18 -29 18 -38 0 -8 -50 -66 -112 -129 -119 -120 -140 -131
-178 -93 -28 28 -25 54 12 95 l31 37 -276 276 c-277 277 -277 277 -263 227 47
-157 59 -398 31 -575 -36 -219 -156 -481 -290 -628 l-36 -41 15 -46 c42 -122
-7 -248 -119 -308 -56 -30 -164 -30 -221 0 -168 89 -179 329 -20 427 60 37
159 47 218 23 l37 -16 34 38 c121 134 228 362 262 560 8 46 15 141 15 211 0
183 -37 361 -105 501 l-18 37 -35 -15 c-181 -76 -412 16 -500 198 -47 98 -50
236 -6 320 13 26 13 27 -44 52 -264 117 -585 132 -859 40 -140 -46 -302 -137
-394 -220 -37 -34 -37 -34 -23 -68 53 -129 -37 -294 -177 -324 -223 -48 -383
202 -249 387 61 85 193 121 288 78 l42 -19 48 40 c169 143 399 249 621 287
175 30 427 17 586 -30 50 -14 50 -14 -230 266 l-279 280 -31 -29 c-45 -43 -70
-47 -100 -17 -14 14 -25 33 -25 42 0 9 50 68 112 131 97 98 116 113 145 113
22 0 36 -6 43 -19z"/>
</g>
</svg>
