<?xml version="1.0" standalone="no"?>
<!DOCTYPE svg PUBLIC "-//W3C//DTD SVG 20010904//EN"
 "http://www.w3.org/TR/2001/REC-SVG-20010904/DTD/svg10.dtd">
<svg version="1.0" xmlns="http://www.w3.org/2000/svg"
 width="60" height="41" viewBox="0 0 183.000000 162.000000"
 preserveAspectRatio="xMidYMid meet">

<g transform="translate(0.000000,162.000000) scale(0.100000,-0.100000)"
fill="#ffffff" stroke="white">
<path d="M893 1509 c-63 -24 -123 -81 -160 -151 l-28 -53 -5 -435 c-5 -409 -6
-437 -25 -475 -72 -142 -275 -96 -275 62 l0 43 -136 0 -136 0 -34 -34 c-40
-40 -41 -52 -14 -139 37 -119 116 -200 249 -253 85 -34 245 -43 345 -20 182
43 319 181 355 358 8 35 10 230 9 583 l-3 530 -45 2 c-26 2 -67 -6 -97 -18z"/>
<path d="M1524 1055 c-27 -14 -59 -40 -72 -58 -56 -79 -51 -77 -52 -20 0 28
-3 58 -6 67 -15 40 -130 1 -200 -68 -84 -84 -84 -87 -84 -537 0 -434 -3 -419
71 -419 83 0 163 56 205 145 23 48 24 59 24 280 0 210 2 233 20 262 32 53 72
68 176 68 l91 0 7 144 c6 114 5 146 -6 152 -28 19 -123 10 -174 -16z"/>
</g>
</svg>
