<?xml version="1.0" standalone="no"?>
<!DOCTYPE svg PUBLIC "-//W3C//DTD SVG 20010904//EN"
 "http://www.w3.org/TR/2001/REC-SVG-20010904/DTD/svg10.dtd">
<svg version="1.0" xmlns="http://www.w3.org/2000/svg"
 width="256.000000pt" height="256.000000pt" viewBox="0 0 256.000000 256.000000"
 preserveAspectRatio="xMidYMid meet">

<g transform="translate(0.000000,256.000000) scale(0.100000,-0.100000)"
fill="#000000" stroke="none">
<path d="M95 2546 c-41 -18 -83 -69 -90 -109 -3 -18 -4 -550 -3 -1184 3 -1145
3 -1152 24 -1179 11 -15 33 -37 48 -48 27 -21 31 -21 1206 -21 1175 0 1179 0
1206 21 15 11 37 33 48 48 21 27 21 31 21 1206 0 1175 0 1179 -21 1206 -11 15
-33 37 -48 48 -27 21 -33 21 -1194 23 -955 2 -1173 0 -1197 -11z m2305 -306
l0 -160 -1120 0 -1120 0 0 160 0 160 1120 0 1120 0 0 -160z m-912 -642 c55
-20 62 -26 57 -45 -8 -32 -384 -1045 -390 -1052 -8 -7 -145 41 -145 51 0 5 84
235 186 511 102 276 191 514 196 530 12 33 16 33 96 5z m-608 -203 l55 -55
-150 -150 -150 -150 150 -150 150 -150 -58 -57 -57 -58 -207 208 -208 207 205
205 c113 113 207 205 210 205 3 0 30 -25 60 -55z m1070 -150 l205 -205 -205
-205 c-113 -113 -209 -205 -215 -205 -13 0 -105 92 -105 105 0 5 66 76 147
157 l148 148 -148 148 c-81 81 -147 152 -147 157 0 13 92 105 105 105 5 0 102
-92 215 -205z"/>
<path d="M265 2295 c-50 -49 -15 -135 55 -135 41 0 80 39 80 80 0 41 -39 80
-80 80 -19 0 -40 -9 -55 -25z"/>
<path d="M465 2295 c-16 -15 -25 -36 -25 -55 0 -19 9 -40 25 -55 49 -50 135
-15 135 55 0 41 -39 80 -80 80 -19 0 -40 -9 -55 -25z"/>
<path d="M665 2295 c-16 -15 -25 -36 -25 -55 0 -19 9 -40 25 -55 15 -16 36
-25 55 -25 19 0 40 9 55 25 16 15 25 36 25 55 0 19 -9 40 -25 55 -15 16 -36
25 -55 25 -19 0 -40 -9 -55 -25z"/>
</g>
</svg>
